<svg width="30" height="30" viewBox="0 0 30 30" fill="none" xmlns="http://www.w3.org/2000/svg">
<circle cx="15" cy="15" r="15" fill="#DE0B1C"/>
<path d="M18.9193 11.6667C18.7534 11.196 18.4505 10.7858 18.0495 10.4888C17.6485 10.1918 17.1678 10.0215 16.6693 10H13.3359C12.6729 10 12.037 10.2634 11.5682 10.7322C11.0993 11.2011 10.8359 11.837 10.8359 12.5C10.8359 13.163 11.0993 13.7989 11.5682 14.2678C12.037 14.7366 12.6729 15 13.3359 15H16.6693C17.3323 15 17.9682 15.2634 18.437 15.7322C18.9059 16.2011 19.1693 16.837 19.1693 17.5C19.1693 18.163 18.9059 18.7989 18.437 19.2678C17.9682 19.7366 17.3323 20 16.6693 20H13.3359C12.8374 19.9785 12.3567 19.8082 11.9557 19.5112C11.5547 19.2142 11.2518 18.804 11.0859 18.3333" stroke="white" stroke-width="2" stroke-linecap="round" stroke-linejoin="round"/>
<path d="M15 20V22.5M15 7.5V10V7.5Z" stroke="white" stroke-width="2" stroke-linecap="round" stroke-linejoin="round"/>
</svg>
