<svg id="tabler-beer" viewBox="0 0 11 14" fill="none" xmlns="http://www.w3.org/2000/svg">
<path d="M5.27168 0C5.44707 0 5.62247 0 5.79786 0C5.82125 0.0156009 5.84288 0.0392913 5.86802 0.0450694C6.55498 0.192989 6.9923 0.606703 7.23084 1.25501C7.26592 1.35093 7.40389 1.4428 7.51322 1.47516C8.6071 1.80104 9.1251 2.89138 8.68135 3.92797C8.60769 4.10016 8.60652 4.30297 8.56676 4.5185C8.72345 4.5185 8.80997 4.51792 8.8965 4.5185C9.87696 4.52601 10.4791 5.11711 10.4821 6.08206C10.4856 7.23595 10.4856 8.39042 10.4821 9.54431C10.4791 10.4729 9.86644 11.0784 8.93334 11.083C8.81056 11.0836 8.68778 11.083 8.57144 11.083C8.48959 11.5742 8.30133 11.9677 7.98971 12.3022C7.61846 12.7009 7.13905 12.8922 6.61637 13.0014C5.13487 13.0014 3.65337 13.0014 2.17245 13.0014C0.659383 12.4981 0.245451 11.9185 0.245451 10.303C0.245451 8.31935 0.246621 6.33572 0.242528 4.35209C0.242528 4.22208 0.226743 4.08109 0.175293 3.96322C-0.388893 2.67585 0.468203 1.40986 1.89592 1.42142C1.98303 1.422 2.10639 1.37462 2.15375 1.30817C2.6238 0.643106 3.26809 0.415447 4.06087 0.529276C4.12811 0.539099 4.2082 0.526965 4.26901 0.498075C4.60576 0.336287 4.93784 0.166988 5.27168 0ZM0.996725 4.83109C0.993217 4.90332 0.986786 4.97959 0.986786 5.05528C0.986202 6.9326 0.983863 8.80933 0.987371 10.6866C0.989125 11.6903 1.58781 12.2745 2.6086 12.2768C3.80655 12.2791 5.00566 12.2554 6.20302 12.2843C7.25188 12.3097 7.88272 11.5279 7.8646 10.6549C7.8266 8.8076 7.8529 6.9586 7.8529 5.11075C7.8529 5.01137 7.8529 4.91199 7.8529 4.83167C6.65379 5.09457 5.47163 4.88194 4.27953 4.98479C4.27953 5.27254 4.28713 5.54931 4.27661 5.82609C4.27076 5.9873 4.26082 6.15602 4.21054 6.3074C4.0521 6.77832 3.56743 7.06665 3.06463 7.0106C2.5478 6.95282 2.15024 6.58822 2.10697 6.08206C2.07657 5.7215 2.10113 5.3569 2.10113 5.01079C1.70824 4.94665 1.36739 4.89118 0.996725 4.83109ZM5.53594 4.23306C5.53594 4.23132 5.53594 4.22901 5.53594 4.22728C6.06154 4.22728 6.58772 4.2423 7.11215 4.22323C7.68219 4.20243 8.12535 3.73325 8.12243 3.19068C8.1195 2.63309 7.65822 2.16218 7.09228 2.13848C6.69354 2.12231 6.61228 2.05701 6.56843 1.67797C6.51464 1.21687 6.2609 0.907744 5.82417 0.777158C5.38802 0.646572 4.98754 0.754623 4.69872 1.11749C4.51397 1.34919 4.33449 1.40466 4.04684 1.28679C3.50838 1.06606 2.92724 1.32377 2.68987 1.84958C2.51564 2.23556 2.44958 2.26849 2.04851 2.17142C1.42527 2.02003 0.820161 2.42624 0.723694 3.05952C0.636581 3.63155 1.10196 4.1851 1.71 4.22439C1.92339 4.23826 2.13796 4.22786 2.35194 4.23421C2.67818 4.24403 2.80797 4.37231 2.81148 4.69646C2.81615 5.08128 2.81031 5.46611 2.81323 5.85035C2.81557 6.14851 2.94595 6.30278 3.18331 6.29931C3.41308 6.29585 3.5569 6.13059 3.561 5.84458C3.56684 5.46958 3.561 5.09457 3.56275 4.71957C3.5645 4.34515 3.66916 4.23768 4.04567 4.23479C4.54321 4.23017 5.03957 4.23306 5.53594 4.23306ZM8.60827 10.3382C9.48057 10.4561 9.80037 10.0591 9.77582 9.30336C9.74191 8.27428 9.76763 7.24346 9.76763 6.2138C9.76763 5.43317 9.41041 5.14311 8.60886 5.28583C8.60827 6.96264 8.60827 8.64234 8.60827 10.3382Z" fill="white"/>
<path d="M2.65397 9.03586C2.65397 8.60308 2.65046 8.17029 2.65514 7.73693C2.65807 7.42491 2.77616 7.27757 3.01236 7.27122C3.26084 7.26428 3.39414 7.42145 3.39531 7.74098C3.39823 8.61637 3.39823 9.49175 3.39531 10.3671C3.39414 10.6566 3.25675 10.8305 3.03633 10.8392C2.80306 10.8485 2.65807 10.6734 2.65514 10.3631C2.65105 9.92049 2.65397 9.47789 2.65397 9.03586Z" fill="white"/>
<path d="M5.44924 9.03668C5.44924 8.59408 5.44982 8.15205 5.44924 7.70945C5.44866 7.47023 5.52641 7.28995 5.8012 7.27262C6.04558 7.25702 6.17771 7.40205 6.18005 7.71002C6.18531 8.60448 6.18531 9.49893 6.18005 10.3928C6.1783 10.691 6.03389 10.8481 5.80237 10.8389C5.58488 10.8302 5.45158 10.654 5.44982 10.3639C5.44749 9.92131 5.44924 9.47929 5.44924 9.03668Z" fill="white"/>
</svg>