<svg width="301" height="111" viewBox="0 0 301 111" fill="none" xmlns="http://www.w3.org/2000/svg">
<mask id="mask0" mask-type="alpha" maskUnits="userSpaceOnUse" x="0" y="0" width="301" height="111">
<rect width="301" height="111" rx="9.51467" fill="#494949"/>
</mask>
<g mask="url(#mask0)">
<path d="M134.777 109.816L244.793 -0.199219" stroke="white" stroke-opacity="0.15" stroke-width="12" stroke-linecap="round" stroke-linejoin="round"/>
<path d="M143.945 18.1367C149.009 18.1367 153.113 14.0321 153.113 8.96875C153.113 3.90542 149.009 -0.199219 143.945 -0.199219C138.882 -0.199219 134.777 3.90542 134.777 8.96875C134.777 14.0321 138.882 18.1367 143.945 18.1367Z" stroke="white" stroke-opacity="0.15" stroke-width="12" stroke-linecap="round" stroke-linejoin="round"/>
<path d="M235.648 109.793C240.712 109.793 244.816 105.688 244.816 100.625C244.816 95.5617 240.712 91.457 235.648 91.457C230.585 91.457 226.48 95.5617 226.48 100.625C226.48 105.688 230.585 109.793 235.648 109.793Z" stroke="white" stroke-opacity="0.15" stroke-width="12" stroke-linecap="round" stroke-linejoin="round"/>
<path d="M61.4654 -33.1957C61.4654 -43.8942 65.7154 -54.1546 73.2804 -61.7196C80.8454 -69.2846 91.1058 -73.5346 101.804 -73.5346H120.14C130.792 -73.5407 141.008 -77.7592 148.561 -85.2696L161.396 -98.1047C165.145 -101.875 169.602 -104.866 174.511 -106.908C179.419 -108.949 184.684 -110 190 -110C195.316 -110 200.58 -108.949 205.489 -106.908C210.398 -104.866 214.855 -101.875 218.604 -98.1047L231.439 -85.2696C238.992 -77.7592 249.208 -73.5407 259.86 -73.5346H278.196C288.894 -73.5346 299.155 -69.2846 306.72 -61.7196C314.285 -54.1546 318.535 -43.8942 318.535 -33.1957V-14.8598C318.541 -4.20848 322.759 6.00813 330.27 13.5609L343.105 26.396C346.875 30.1447 349.866 34.6017 351.908 39.5106C353.949 44.4195 355 49.6835 355 55C355 60.3165 353.949 65.5805 351.908 70.4894C349.866 75.3983 346.875 79.8553 343.105 83.604L330.27 96.4391C322.759 103.992 318.541 114.208 318.535 124.86V143.196C318.535 153.894 314.285 164.155 306.72 171.72C299.155 179.285 288.894 183.535 278.196 183.535H259.86C249.208 183.541 238.992 187.759 231.439 195.27L218.604 208.105C214.855 211.875 210.398 214.866 205.489 216.908C200.58 218.949 195.316 220 190 220C184.684 220 179.419 218.949 174.511 216.908C169.602 214.866 165.145 211.875 161.396 208.105L148.561 195.27C141.008 187.759 130.792 183.541 120.14 183.535H101.804C91.1058 183.535 80.8454 179.285 73.2804 171.72C65.7154 164.155 61.4654 153.894 61.4654 143.196V124.86C61.4593 114.208 57.2408 103.992 49.7304 96.4391L36.8953 83.604C33.1254 79.8553 30.1338 75.3983 28.0923 70.4894C26.0509 65.5805 25 60.3165 25 55C25 49.6835 26.0509 44.4195 28.0923 39.5106C30.1338 34.6017 33.1254 30.1447 36.8953 26.396L49.7304 13.5609C57.2408 6.00813 61.4593 -4.20848 61.4654 -14.8598V-33.1957" stroke="white" stroke-opacity="0.15" stroke-width="12" stroke-linecap="round" stroke-linejoin="round"/>
</g>
</svg>
