<svg width="50" height="39" viewBox="0 0 50 39" fill="none" xmlns="http://www.w3.org/2000/svg">
<path d="M12.2878 37.4565C15.068 37.4565 17.3217 35.2027 17.3217 32.4226C17.3217 29.6424 15.068 27.3887 12.2878 27.3887C9.50766 27.3887 7.25391 29.6424 7.25391 32.4226C7.25391 35.2027 9.50766 37.4565 12.2878 37.4565Z" stroke="white" stroke-opacity="0.8" stroke-width="3" stroke-miterlimit="7.3333" stroke-linecap="round" stroke-linejoin="round"/>
<path d="M37.6706 37.4565C40.4508 37.4565 42.7045 35.2027 42.7045 32.4226C42.7045 29.6424 40.4508 27.3887 37.6706 27.3887C34.8905 27.3887 32.6367 29.6424 32.6367 32.4226C32.6367 35.2027 34.8905 37.4565 37.6706 37.4565Z" stroke="white" stroke-opacity="0.8" stroke-width="3" stroke-miterlimit="7.3333" stroke-linecap="round" stroke-linejoin="round"/>
<path d="M7.09757 32.4223H2V4.53058C2 3.13392 3.14208 2 4.54879 2H27.5297V17.2111M27.5297 32.4223V17.2111M17.3206 32.4223H32.6412M47.9617 17.2111V32.4223H42.9185M47.9617 17.2111H27.5297M47.9617 17.2111L40.3014 4.53058H27.5297" stroke="white" stroke-opacity="0.8" stroke-width="3" stroke-miterlimit="7.3333" stroke-linecap="round" stroke-linejoin="round"/>
</svg>
