<svg width="49" height="49" viewBox="0 0 49 49" fill="none" xmlns="http://www.w3.org/2000/svg">
<path d="M24.1859 42.3255C34.2041 42.3255 42.3254 34.2042 42.3254 24.186C42.3254 14.1678 34.2041 6.04651 24.1859 6.04651C14.1677 6.04651 6.04639 14.1678 6.04639 24.186C6.04639 34.2042 14.1677 42.3255 24.1859 42.3255Z" stroke="#ACABAB" stroke-width="3" stroke-linecap="round" stroke-linejoin="round"/>
<path d="M18.1394 20.155H18.1602" stroke="#ACABAB" stroke-width="3" stroke-linecap="round" stroke-linejoin="round"/>
<path d="M30.2324 20.155H30.2532" stroke="#ACABAB" stroke-width="3" stroke-linecap="round" stroke-linejoin="round"/>
<path d="M19.1472 30.2325C19.804 30.9029 20.588 31.4355 21.4532 31.799C22.3184 32.1626 23.2475 32.3499 24.186 32.3499C25.1245 32.3499 26.0535 32.1626 26.9187 31.799C27.7839 31.4355 28.5679 30.9029 29.2247 30.2325" stroke="#ACABAB" stroke-width="3" stroke-linecap="round" stroke-linejoin="round"/>
</svg>
