<svg width="14" height="14" viewBox="0 0 14 14" fill="none" xmlns="http://www.w3.org/2000/svg">
<path d="M4.99219 8.99219L8.99219 4.99219" stroke="#DE0B1C" stroke-width="1.5" stroke-linecap="round" stroke-linejoin="round"/>
<path d="M5.32552 5.65886C5.50962 5.65886 5.65886 5.50962 5.65886 5.32552C5.65886 5.14143 5.50962 4.99219 5.32552 4.99219C5.14143 4.99219 4.99219 5.14143 4.99219 5.32552C4.99219 5.50962 5.14143 5.65886 5.32552 5.65886Z" fill="#DE0B1C" stroke="#DE0B1C" stroke-linecap="round" stroke-linejoin="round"/>
<path d="M8.65755 8.99186C8.84165 8.99186 8.99089 8.84262 8.99089 8.65853C8.99089 8.47443 8.84165 8.3252 8.65755 8.3252C8.47346 8.3252 8.32422 8.47443 8.32422 8.65853C8.32422 8.84262 8.47346 8.99186 8.65755 8.99186Z" fill="#DE0B1C" stroke="#DE0B1C" stroke-linecap="round" stroke-linejoin="round"/>
<path d="M2.32583 3.7925C2.32583 3.40351 2.48035 3.03046 2.75541 2.75541C3.03046 2.48035 3.40351 2.32583 3.79249 2.32583H4.45916C4.84643 2.32561 5.21789 2.17223 5.4925 1.89916L5.95916 1.4325C6.09546 1.29543 6.25751 1.18666 6.43599 1.11243C6.61447 1.03821 6.80586 1 6.99916 1C7.19246 1 7.38385 1.03821 7.56233 1.11243C7.74081 1.18666 7.90286 1.29543 8.03916 1.4325L8.50583 1.89916C8.78044 2.17223 9.1519 2.32561 9.53916 2.32583H10.2058C10.5948 2.32583 10.9679 2.48035 11.2429 2.75541C11.518 3.03046 11.6725 3.40351 11.6725 3.7925V4.45916C11.6727 4.84643 11.8261 5.21789 12.0992 5.4925L12.5658 5.95916C12.7029 6.09546 12.8117 6.25751 12.8859 6.43599C12.9601 6.61447 12.9983 6.80586 12.9983 6.99916C12.9983 7.19246 12.9601 7.38385 12.8859 7.56233C12.8117 7.74082 12.7029 7.90286 12.5658 8.03916L12.0992 8.50583C11.8261 8.78044 11.6727 9.1519 11.6725 9.53916V10.2058C11.6725 10.5948 11.518 10.9679 11.2429 11.2429C10.9679 11.518 10.5948 11.6725 10.2058 11.6725H9.53916C9.1519 11.6727 8.78044 11.8261 8.50583 12.0992L8.03916 12.5658C7.90286 12.7029 7.74081 12.8117 7.56233 12.8859C7.38385 12.9601 7.19246 12.9983 6.99916 12.9983C6.80586 12.9983 6.61447 12.9601 6.43599 12.8859C6.25751 12.8117 6.09546 12.7029 5.95916 12.5658L5.4925 12.0992C5.21789 11.8261 4.84643 11.6727 4.45916 11.6725H3.79249C3.40351 11.6725 3.03046 11.518 2.75541 11.2429C2.48035 10.9679 2.32583 10.5948 2.32583 10.2058V9.53916C2.32561 9.1519 2.17223 8.78044 1.89916 8.50583L1.43249 8.03916C1.29543 7.90286 1.18666 7.74082 1.11243 7.56233C1.03821 7.38385 1 7.19246 1 6.99916C1 6.80586 1.03821 6.61447 1.11243 6.43599C1.18666 6.25751 1.29543 6.09546 1.43249 5.95916L1.89916 5.4925C2.17223 5.21789 2.32561 4.84643 2.32583 4.45916V3.7925" stroke="#DE0B1C" stroke-width="1.5" stroke-linecap="round" stroke-linejoin="round"/>
</svg>
