  <svg width="45" height="45" viewBox="0 0 90 89" fill="none" xmlns="http://www.w3.org/2000/svg">
    <rect width="90" height="89" rx="44.5" fill="#D0001D" />
    <path
        d="M39.625 42.0833C43.9512 42.0833 47.4583 38.6509 47.4583 34.4167C47.4583 30.1825 43.9512 26.75 39.625 26.75C35.2988 26.75 31.7917 30.1825 31.7917 34.4167C31.7917 38.6509 35.2988 42.0833 39.625 42.0833Z"
        stroke="white"
        stroke-width="2.75"
        stroke-linecap="round"
        stroke-linejoin="round"
    />
    <path
        d="M27.875 61.25V57.4167C27.875 55.3833 28.7003 53.4333 30.1693 51.9955C31.6384 50.5577 33.6308 49.75 35.7083 49.75H43.5417C45.6192 49.75 47.6116 50.5577 49.0807 51.9955C50.5497 53.4333 51.375 55.3833 51.375 57.4167V61.25"
        stroke="white"
        stroke-width="2.75"
        stroke-linecap="round"
        stroke-linejoin="round"
    />
    <path
        d="M53.3333 26.9993C55.0183 27.4215 56.5118 28.3806 57.5783 29.7254C58.6448 31.0701 59.2237 32.724 59.2237 34.4264C59.2237 36.1287 58.6448 37.7826 57.5783 39.1273C56.5118 40.4721 55.0183 41.4312 53.3333 41.8534"
        stroke="white"
        stroke-width="2.75"
        stroke-linecap="round"
        stroke-linejoin="round"
    />
    <path
        d="M63.125 61.2501V57.4168C63.1151 55.7247 62.5334 54.0833 61.4707 52.7485C60.408 51.4138 58.924 50.4606 57.25 50.0376"
        stroke="white"
        stroke-width="1.75"
        stroke-linecap="round"
        stroke-linejoin="round"
    />
</svg>