 <svg width="45" height="45" viewBox="0 0 62 62" fill="none" xmlns="http://www.w3.org/2000/svg">
<rect width="62" height="62" rx="31" fill="#D0001D" />
<path
    d="M31 43C37.6274 43 43 37.6274 43 31C43 24.3726 37.6274 19 31 19C24.3726 19 19 24.3726 19 31C19 37.6274 24.3726 43 31 43Z"
    stroke="white"
    stroke-width="2.75"
    stroke-linecap="round"
    stroke-linejoin="round"
/>
<path d="M27 28.3333H27.0133" stroke="white" stroke-width="2.75" stroke-linecap="round" stroke-linejoin="round" />
<path d="M35 28.3333H35.0133" stroke="white" stroke-width="2.75" stroke-linecap="round" stroke-linejoin="round" />
<path
    d="M27.6667 35C28.1012 35.4435 28.6198 35.7958 29.1922 36.0363C29.7646 36.2768 30.3792 36.4007 31 36.4007C31.6209 36.4007 32.2355 36.2768 32.8079 36.0363C33.3802 35.7958 33.8989 35.4435 34.3334 35"
    stroke="white"
    stroke-width="2.75"
    stroke-linecap="round"
    stroke-linejoin="round"
/>
</svg>