<svg width="14" height="15" viewBox="0 0 14 15" fill="none" xmlns="http://www.w3.org/2000/svg">
<path d="M1.66797 3.95856H13.0013" stroke="#C4C4C4" stroke-width="1.5" stroke-linecap="round" stroke-linejoin="round"/>
<path d="M5.91797 6.79144V11.0414" stroke="#C4C4C4" stroke-width="1.5" stroke-linecap="round" stroke-linejoin="round"/>
<path d="M8.75146 6.79144V11.0414" stroke="#C4C4C4" stroke-width="1.5" stroke-linecap="round" stroke-linejoin="round"/>
<path d="M2.37646 3.95856L3.0848 12.4586C3.0848 12.8343 3.23405 13.1946 3.49973 13.4603C3.76541 13.726 4.12574 13.8752 4.50146 13.8752H10.1681C10.5439 13.8752 10.9042 13.726 11.1699 13.4603C11.4355 13.1946 11.5848 12.8343 11.5848 12.4586L12.2931 3.95856" stroke="#C4C4C4" stroke-width="1.5" stroke-linecap="round" stroke-linejoin="round"/>
<path d="M5.20996 3.95833V1.83333C5.20996 1.64547 5.28459 1.4653 5.41743 1.33247C5.55027 1.19963 5.73043 1.125 5.91829 1.125H8.75163C8.93949 1.125 9.11966 1.19963 9.25249 1.33247C9.38533 1.4653 9.45996 1.64547 9.45996 1.83333V3.95833" stroke="#C4C4C4" stroke-width="1.5" stroke-linecap="round" stroke-linejoin="round"/>
</svg>
