<svg width="99" height="77" viewBox="0 0 99 77" fill="none" xmlns="http://www.w3.org/2000/svg">
<path d="M23.1791 75C28.9031 75 33.5433 70.3598 33.5433 64.6358C33.5433 58.9118 28.9031 54.2716 23.1791 54.2716C17.4552 54.2716 12.8149 58.9118 12.8149 64.6358C12.8149 70.3598 17.4552 75 23.1791 75Z" stroke="#1A1A1A" stroke-width="3" stroke-miterlimit="7.3333" stroke-linecap="round" stroke-linejoin="round"/>
<path d="M75.4506 75C81.1746 75 85.8148 70.3598 85.8148 64.6358C85.8148 58.9118 81.1746 54.2716 75.4506 54.2716C69.7266 54.2716 65.0864 58.9118 65.0864 64.6358C65.0864 70.3598 69.7266 75 75.4506 75Z" stroke="#1A1A1A" stroke-width="3" stroke-miterlimit="7.3333" stroke-linecap="round" stroke-linejoin="round"/>
<path d="M12.4953 64.6358H2V7.21016C2 4.33461 4.3514 2 7.24764 2H54.5625V33.3179M54.5625 64.6358V33.3179M33.5432 64.6358H65.0864M96.6296 33.3179V64.6358H86.2462M96.6296 33.3179H54.5625M96.6296 33.3179L80.858 7.21016H54.5625" stroke="#1A1A1A" stroke-width="3" stroke-miterlimit="7.3333" stroke-linecap="round" stroke-linejoin="round"/>
</svg>
